<?xml version="1.0" encoding="utf-8"?>
<!-- Generator: Adobe Illustrator 22.0.1, SVG Export Plug-In . SVG Version: 6.00 Build 0)  -->
<svg version="1.1" id="Layer_1" xmlns="http://www.w3.org/2000/svg" xmlns:xlink="http://www.w3.org/1999/xlink" x="0px" y="0px"
	 viewBox="0 0 100 97.7" style="enable-background:new 0 0 100 97.7;" xml:space="preserve">
<g>
	<g>
		<g>
			<path d="M44.5,6.6c-8.7,5.3-17.6,10.6-26.2,16c-5.2,3.3-9.2,8.2-6.8,14.5c1.6,4.2,3.3,7.6,3.3,12.2c0,4.9-2.5,8.8-4.9,12.9
				c-1.7,2.8-2.2,5.5-1.8,8.7c0.4,2.8,3.7,4.3,0.8,7.8c-1.5,1.8-4.5,2.2-6.6,2.7c-3.1,0.7-1.8,5.6,1.3,4.8C8.6,85,17,81.5,15,74.7
				c-0.5-1.8-1.4-3.4-2.1-5.1c-0.8-2.3,1.7-5.6,2.9-7.4c2.1-3.4,3.6-7.3,3.9-11.3c0.3-3.9-0.2-7.6-1.5-11.3
				c-0.6-1.8-1.6-3.3-2.3-5.1c-1.1-2.9,1.8-5.4,3.8-6.9C28.1,21.4,38,16.4,47,10.9C49.7,9.3,47.2,4.9,44.5,6.6L44.5,6.6z"/>
		</g>
	</g>
	<g>
		<g>
			<path d="M39.8,10.4c-2.8,5.9-8,10.1-10.4,16.3c-2,5.1-0.8,11.1,1.6,15.8c0.5,1,1.3,1.9,2,2.8c2,2.5,0.3,3.2-1.2,4.6
				c-2,1.8-2.6,4.1-2.7,6.7c-0.4,5.9,4.8,13,7.3,18c0.1-1,0.3-2,0.4-3c-3.1,2.6-7.7,2.2-10.9,4.9c-3,2.6-4.5,5.9-4.7,9.9
				c-0.1,3.2,4.9,3.2,5,0c0.3-8.1,9.2-7.2,14.1-11.2c0.9-0.7,0.9-2.1,0.4-3c-2.1-4.3-9.4-14.2-5.4-18.7c2.1-2.3,5.7-5.3,3.3-8.9
				C35,39,32.2,34.9,34.2,28c1.7-5.7,7.4-9.7,9.9-15.1C45.5,10,41.2,7.5,39.8,10.4L39.8,10.4z"/>
		</g>
	</g>
	<g>
		<g>
			<path d="M34.8,74.8c3.1,5.5,5.5,11.1,7.4,17.1c1,3.1,5.8,1.8,4.8-1.3c-2-6.4-4.6-12.5-7.9-18.3C37.6,69.4,33.2,71.9,34.8,74.8
				L34.8,74.8z"/>
		</g>
	</g>
	<g>
		<g>
			<path d="M33.5,41.1C44.9,37.3,49.2,51.7,51,59.8c0.4,1.9,2.8,2.3,4.2,1.1c3.8-3.3,6.4,3.2,7.1,5.6c0.9,3.1,5.8,1.8,4.8-1.3
				c-2-6.7-8.6-13.9-15.5-7.8c1.4,0.4,2.8,0.7,4.2,1.1c-2.5-11-9.3-27-23.7-22.2C29.2,37.3,30.5,42.1,33.5,41.1L33.5,41.1z"/>
		</g>
	</g>
	<g>
		<g>
			<path d="M50.3,55.2c-3.5,3.9-5.9,8.5-7.2,13.6c-0.8,3.1,4,4.5,4.8,1.3c1.1-4.3,3-8.1,6-11.4C56,56.3,52.5,52.8,50.3,55.2
				L50.3,55.2z"/>
		</g>
	</g>
	<g>
		<g>
			<path d="M50.3,58.7c-0.7,3.1-0.7,5.9-0.3,9c0.5,3.3,5,9.9,0.7,12.2c-2.8,1.6-0.3,5.9,2.5,4.3c2.9-1.6,4-4.2,4.3-7.4
				c0.2-2-0.7-4.2-1.4-6.1c-1.3-3.7-1.9-6.9-1.1-10.8C55.8,56.9,51,55.5,50.3,58.7L50.3,58.7z"/>
		</g>
	</g>
	<g>
		<g>
			<path d="M43.3,9.5c1.5,7,2.2,17.7,8.7,22.1c4.4,3,13.2,1.7,11.4,9.8c-1,4.4-3.6,7.8,1,11.2c2.6,1.9,5.1-2.4,2.5-4.3
				c-0.9-0.7,1.6-6.3,1.7-7.5c0.1-1.8,0-3.5-0.8-5.1c-1.7-3.8-4.5-5.8-8.5-6.9c-2.4-0.6-4.3-0.7-5.9-2.8c-1.2-1.6-1.9-3.6-2.5-5.5
				c-1.3-4-1.9-8.2-2.8-12.3C47.5,5,42.6,6.3,43.3,9.5L43.3,9.5z"/>
		</g>
	</g>
	<g>
		<g>
			<path d="M65.6,43.3c3.5,2.9,6,6.3,8.2,10.3c1.2,2.1,2.1,4.3,3,6.5c1.5,3.5,1.3,4.5-1.4,7.2c-3,3.1-7.2,5.7-9.8,9.3
				c-1,1.4-1.6,2.6-2,4.3c-0.5,1.9,0.4,6-1.9,7c-2.9,1.2-1.7,6,1.3,4.8c4.3-1.7,5-5.4,5.3-9.7c0.3-3.9,4.2-6.2,6.8-8.5
				c2.5-2.2,4.9-4.6,7-7.1c2.9-3.6-0.5-8.6-2-12.1c-2.6-5.9-6-11.4-11-15.5C66.6,37.7,63.1,41.2,65.6,43.3L65.6,43.3z"/>
		</g>
	</g>
	<g>
		<g>
			<path d="M66.9,78.1c2.6,3.9,4.3,8.3,4.9,12.9c0.4,3.1,5.4,3.2,5,0c-0.7-5.6-2.5-10.7-5.6-15.5C69.4,72.8,65.1,75.4,66.9,78.1
				L66.9,78.1z"/>
		</g>
	</g>
	<g>
		<g>
			<path d="M77.4,68.6c1.5,1.7,3.1,3.5,4.6,5.2c1.6,1.8,4.6,4.8,3.3,7.4c-1.4,2.9,2.9,5.4,4.3,2.5c3.6-7.3-4.4-13.7-8.7-18.6
				C78.8,62.7,75.2,66.2,77.4,68.6L77.4,68.6z"/>
		</g>
	</g>
	<g>
		<g>
			<path d="M85.8,78.9c-3-0.9-6.1,0.4-7.8,2.9c-0.7,1.1-0.2,2.8,0.9,3.4c1.2,0.7,2.7,0.2,3.4-0.9c0.1-0.1,0.3-0.4,0.2-0.3
				c0.1-0.1,0.3-0.2,0.5-0.3c0.3-0.1,0.3-0.2,0.1-0.1c0.6-0.2,0.7-0.2,1.3,0C87.5,84.7,88.9,79.8,85.8,78.9L85.8,78.9z"/>
		</g>
	</g>
	<g>
		<g>
			<path d="M85.2,81.2c-0.8,2.5-1.6,4.9-2.4,7.4c-1,3.1,3.8,4.4,4.8,1.3c0.8-2.5,1.6-4.9,2.4-7.4C91,79.5,86.2,78.2,85.2,81.2
				L85.2,81.2z"/>
		</g>
	</g>
	<g>
		<g>
			<path d="M48.8,25c3.8,0.1,7.4-1.5,11.2-2c4.5-0.6,9.1-0.1,13.5,0.8c5.1,1.1,12.8,4.9,6.8,10.8c-2.4,2.3-4.1,4.6-3.7,8
				c0.3,3.2,5.3,3.2,5,0c-0.3-3.5,3.2-4.6,4.6-7.1c1-1.7,1.4-3.1,1.5-5.1c0.2-3.9-3.1-7-6-8.9c-4.1-2.7-9.8-3.2-14.6-3.6
				c-3-0.3-6,0-8.9,0.4c-3.2,0.4-6.2,1.8-9.4,1.8C45.6,19.9,45.6,24.9,48.8,25L48.8,25z"/>
		</g>
	</g>
	<g>
		<g>
			<path d="M85.1,37.6c2.8,0.2,4.4,2.1,5.8,4.3c0.7,1,5.4,8.1,2.7,8.2c-3.2,0.2-3.2,5.2,0,5c7-0.3,6.4-7.8,3.8-12.2
				c-3-5.1-5.9-9.8-12.3-10.3C81.9,32.4,81.9,37.4,85.1,37.6L85.1,37.6z"/>
		</g>
	</g>
	<g>
		<g>
			<path d="M90.2,40.2c-4.4,4.2-6.6,10.1-5.8,16.2c0.4,3.1,5.4,3.2,5,0c-0.6-4.8,0.8-9.2,4.3-12.6C96,41.5,92.5,38,90.2,40.2
				L90.2,40.2z"/>
		</g>
	</g>
</g>
<text transform="matrix(1 0 0 1 0 115)" style="font-family:'Arial-BoldMT'; font-size:5px;">Created by Guilhem</text>
<text transform="matrix(1 0 0 1 0 120)" style="font-family:'Arial-BoldMT'; font-size:5px;">from the Noun Project</text>
</svg>
